<?xml version="1.0" standalone="no"?>
<!DOCTYPE svg PUBLIC "-//W3C//DTD SVG 20010904//EN"
 "http://www.w3.org/TR/2001/REC-SVG-20010904/DTD/svg10.dtd">
<svg version="1.0" xmlns="http://www.w3.org/2000/svg"
 width="200.000000pt" height="200.000000pt" viewBox="0 0 200.000000 200.000000"
 preserveAspectRatio="xMidYMid meet">

<g transform="translate(0.000000,200.000000) scale(0.100000,-0.100000)"
fill="#000000" stroke="none">
<path d="M750 1982 c-81 -22 -153 -59 -144 -73 4 -7 -1 -9 -14 -5 -24 8 -82
-18 -82 -37 0 -7 -9 -18 -20 -25 -12 -7 -20 -8 -20 -2 0 6 -10 8 -23 5 -15 -4
-38 4 -71 26 l-49 33 -64 -17 c-70 -18 -111 -44 -135 -85 -21 -36 -33 -117
-19 -126 6 -4 11 -27 11 -52 0 -30 5 -46 15 -50 17 -7 21 -102 6 -150 -5 -16
-12 -54 -15 -84 l-6 -55 25 70 c14 39 33 85 43 104 13 26 14 35 4 39 -14 4
-16 42 -2 42 6 0 10 -8 10 -17 1 -12 5 -8 13 10 7 15 25 34 41 42 35 18 36 18
36 1 0 -8 5 -27 10 -42 11 -27 11 -27 26 -6 12 17 54 28 54 14 0 -10 -35 -62
-42 -62 -4 0 -8 -4 -8 -10 0 -5 7 -10 16 -10 11 0 14 -5 10 -16 -3 -9 -6 -20
-6 -25 0 -5 -9 -9 -20 -9 -11 0 -20 -3 -20 -8 0 -4 -13 -13 -30 -20 -18 -8
-30 -21 -30 -32 0 -24 -20 -37 -21 -13 0 13 -3 12 -10 -7 -13 -33 -16 -35 -34
-20 -13 10 -15 9 -15 -9 0 -11 5 -21 11 -21 6 0 8 -9 3 -22 -4 -13 -7 -44 -6
-70 1 -26 -2 -49 -6 -52 -5 -3 -7 -69 -6 -147 2 -79 -1 -149 -5 -158 -11 -18
8 -78 19 -61 4 7 10 -1 14 -21 7 -37 -2 -55 -11 -21 -7 30 -23 28 -21 -3 1
-14 6 -25 10 -25 4 0 8 -5 8 -12 0 -6 -8 -4 -19 6 -16 14 -20 31 -19 75 0 31
-4 67 -11 78 -6 12 -11 32 -11 45 0 13 -7 32 -15 42 -14 18 -15 17 -15 -21 0
-23 -3 -48 -6 -57 -4 -11 -1 -16 10 -16 9 0 16 -7 16 -16 0 -8 -4 -12 -10 -9
-9 6 -13 -14 -14 -85 -1 -14 -5 -31 -9 -38 -5 -7 -4 -18 2 -26 6 -7 8 -16 5
-19 -10 -9 -25 -210 -29 -383 -4 -137 -6 -155 -29 -201 -15 -28 -26 -54 -26
-57 0 -3 24 -6 54 -6 36 0 58 5 67 16 11 14 13 14 21 0 6 -10 23 -16 43 -16
29 0 36 4 41 27 5 17 3 28 -4 31 -19 6 -14 26 14 68 15 21 40 65 56 97 30 59
52 72 63 37 3 -11 12 -20 20 -20 7 0 15 -3 17 -7 2 -5 21 10 43 31 33 33 36
39 17 34 -16 -5 -26 -1 -35 13 -6 10 -23 19 -36 19 -20 0 -22 3 -13 12 16 16
15 28 -3 28 -9 0 -12 6 -9 15 7 18 42 11 62 -14 12 -15 13 -14 8 1 -3 10 -1
20 4 23 6 4 10 11 10 16 0 6 -5 7 -10 4 -6 -3 -10 -2 -10 4 0 6 -11 13 -25 17
-17 4 -25 13 -25 28 0 12 -5 27 -12 34 -8 8 -8 15 2 27 12 14 25 13 25 -3 0
-4 8 -18 18 -32 13 -19 17 -21 17 -7 0 23 31 71 39 60 3 -4 15 -13 27 -20 19
-10 21 -9 20 18 -1 31 -4 32 -69 13 -13 -4 -20 1 -24 15 -3 11 -9 18 -14 16
-9 -6 -91 74 -85 83 6 10 -16 27 -34 27 -19 0 -26 35 -8 47 10 8 9 9 -4 4 -14
-4 -17 0 -14 17 2 12 -4 36 -12 52 -9 17 -15 33 -14 36 3 12 2 73 -1 140 -3
57 0 70 18 92 12 14 31 27 41 29 11 2 20 10 20 18 1 8 2 21 3 28 0 6 9 12 19
13 12 0 11 3 -7 10 -15 6 -21 15 -17 24 8 21 -11 18 -34 -5 -16 -16 -19 -28
-14 -55 5 -31 4 -35 -15 -35 -25 0 -25 0 -5 70 8 30 16 64 18 75 6 42 66 129
66 96 0 -6 4 -11 9 -11 4 0 6 12 3 28 -3 21 -2 25 8 15 7 -6 20 -9 29 -5 13 5
12 2 -3 -13 -17 -17 -17 -20 -2 -31 16 -11 15 -13 -6 -28 -12 -9 -28 -16 -35
-16 -15 0 -17 -16 -4 -24 5 -3 11 1 15 9 6 17 42 20 51 5 3 -5 -10 -16 -30
-24 -27 -12 -35 -21 -35 -40 0 -28 7 -31 30 -15 11 8 12 12 3 16 -7 2 -13 9
-13 15 0 7 5 6 14 -1 10 -9 15 -8 20 4 9 23 58 17 90 -11 22 -19 26 -28 16
-34 -10 -6 -10 -9 1 -13 26 -10 -33 -12 -76 -2 -23 5 -26 4 -15 -4 21 -15 1
-45 -34 -49 -26 -3 -76 -38 -76 -52 0 -3 12 -11 28 -17 25 -10 25 -11 5 -12
-26 -1 -26 -1 -13 -36 8 -20 6 -29 -8 -44 -25 -26 -25 -41 -1 -41 16 0 19 4
14 20 -4 11 -2 20 4 20 6 0 11 7 11 15 0 8 5 15 10 15 10 0 15 -27 12 -65 -1
-12 1 -15 5 -9 5 7 17 13 28 16 19 3 19 4 -2 23 -17 14 -19 21 -10 27 9 6 8
10 -3 18 -11 7 -11 10 -2 10 7 0 10 5 7 10 -3 6 -2 10 4 10 16 0 51 -51 51
-75 0 -48 32 -116 69 -143 20 -15 38 -31 40 -35 1 -4 8 -2 15 6 6 7 23 18 39
25 44 19 34 -6 -32 -77 -54 -58 -60 -62 -79 -50 -15 9 -20 20 -16 35 7 28 -14
41 -34 20 -15 -14 -15 -17 0 -28 19 -16 30 -56 17 -64 -5 -3 -9 -10 -9 -15 0
-6 4 -7 10 -4 6 3 7 -1 4 -9 -3 -9 -2 -16 4 -16 5 0 12 7 16 15 3 8 14 15 25
15 14 0 27 13 41 40 12 23 27 43 35 47 8 3 15 14 15 24 0 10 7 19 15 19 16 0
47 59 39 72 -3 5 2 8 10 8 9 0 23 12 32 26 20 30 34 17 34 -34 0 -25 5 -35 20
-39 11 -3 20 -12 20 -19 0 -8 5 -14 11 -14 6 0 8 -9 4 -20 -4 -11 -2 -20 4
-20 6 0 11 7 11 15 0 8 9 15 20 15 18 0 20 -6 19 -86 0 -47 1 -88 4 -90 3 -3
15 3 26 13 22 18 28 52 12 68 -5 6 -11 21 -12 35 -4 28 19 118 32 126 5 3 20
-3 35 -12 25 -17 27 -17 45 7 14 19 22 22 35 13 23 -14 31 -36 10 -28 -11 4
-16 1 -16 -10 0 -9 5 -16 10 -16 6 0 10 -7 10 -15 0 -12 7 -9 27 9 15 14 31
22 36 17 12 -12 -4 -43 -19 -37 -7 3 -16 1 -19 -4 -4 -6 6 -15 20 -20 35 -13
38 -13 31 5 -3 8 -1 15 4 15 6 0 10 -5 10 -11 0 -6 7 -9 15 -5 8 3 19 -2 24
-12 10 -16 10 -16 11 0 0 9 -6 21 -12 25 -16 10 -17 36 -1 46 7 4 10 15 7 25
-5 16 -5 16 8 1 8 -10 31 -24 52 -33 47 -20 69 -45 54 -64 -18 -21 5 -59 34
-56 12 1 29 3 37 3 11 1 11 4 1 16 -11 13 -10 14 4 9 10 -4 15 -13 12 -21 -3
-7 1 -16 9 -19 8 -4 15 -12 15 -20 0 -8 5 -14 10 -14 6 0 10 11 10 25 0 27 14
33 27 13 14 -24 13 -48 -2 -48 -8 0 -15 -4 -15 -9 0 -5 -7 -11 -14 -14 -10 -4
-13 -1 -10 7 4 10 -10 13 -58 11 -57 -1 -66 1 -97 29 l-34 31 26 -44 c14 -25
33 -53 41 -63 14 -16 13 -19 -17 -35 -32 -17 -32 -17 -7 -21 14 -2 28 -9 31
-14 4 -6 15 -2 28 11 l21 21 -22 0 c-12 0 -18 3 -14 8 11 11 99 11 113 0 15
-12 33 -2 33 20 0 15 2 15 10 2 6 -10 10 -11 10 -2 0 22 18 12 24 -14 9 -35
-5 -48 -51 -46 -28 1 -34 -1 -23 -8 10 -7 11 -12 4 -17 -6 -5 -13 -16 -17 -26
-4 -9 -20 -20 -38 -24 -17 -3 -36 -14 -42 -24 -7 -11 -22 -19 -35 -19 -12 0
-25 -7 -28 -15 -6 -15 -72 -41 -81 -31 -12 12 7 37 25 32 18 -6 75 37 84 64 2
8 18 15 34 16 16 1 32 3 35 3 7 1 39 64 39 75 0 13 -28 5 -34 -9 -3 -8 -13
-15 -21 -15 -9 0 -23 -7 -31 -15 -18 -18 -49 -20 -38 -3 5 8 0 9 -17 5 -13 -4
-40 -7 -59 -7 -27 0 -31 -3 -20 -10 13 -9 12 -12 -4 -25 -17 -13 -17 -15 -4
-15 9 0 20 5 23 10 3 6 14 10 23 10 11 0 2 -14 -28 -41 -91 -82 -130 -122
-130 -134 0 -20 -28 -37 -50 -30 -37 12 -21 75 37 152 23 30 103 87 146 105
12 5 15 12 10 20 -4 7 -8 20 -9 28 -3 43 -5 50 -14 50 -5 0 -10 -15 -10 -34 0
-39 -25 -57 -35 -25 -4 10 -10 19 -15 19 -5 0 -14 15 -19 32 -5 18 -10 25 -10
15 -1 -14 -6 -17 -21 -12 -15 5 -20 2 -20 -12 0 -14 -2 -15 -9 -5 -4 8 -12 14
-17 15 -14 3 -11 90 4 109 18 22 8 38 -19 31 -19 -5 -21 -3 -16 19 5 18 2 28
-8 32 -17 6 -19 -11 -6 -46 11 -30 -20 -93 -37 -76 -9 9 -12 6 -11 -12 0 -14
4 -34 8 -45 10 -24 -6 -75 -24 -75 -8 0 -11 -9 -7 -25 2 -14 1 -50 -3 -81 -6
-53 -7 -55 -19 -32 -17 33 -29 138 -16 138 5 0 10 5 10 11 0 5 -4 7 -10 4 -5
-3 -10 -1 -10 5 0 7 -7 5 -16 -4 -8 -9 -20 -14 -24 -11 -5 3 -16 -5 -25 -19
-15 -23 -15 -26 2 -45 9 -12 23 -21 30 -21 7 0 13 -7 13 -15 0 -8 5 -15 11
-15 6 0 8 -8 4 -19 -4 -13 0 -23 12 -29 24 -13 33 -118 10 -109 -10 4 -19 -7
-30 -34 -15 -38 -47 -55 -47 -24 0 8 -6 15 -13 15 -19 0 -85 58 -92 81 -9 29
-46 69 -62 69 -7 0 -13 5 -13 10 0 6 5 10 11 10 11 0 39 24 39 34 0 11 -56 6
-67 -5 -8 -8 -13 -8 -17 0 -10 16 -29 13 -23 -3 8 -21 -23 -29 -44 -10 -16 14
-18 14 -21 -3 -5 -21 18 -73 33 -73 5 0 9 6 8 13 -3 24 1 38 10 32 5 -3 12 -1
16 5 11 18 33 10 37 -14 4 -19 1 -23 -11 -19 -11 4 -9 0 4 -10 11 -8 23 -13
27 -11 8 5 57 -45 58 -58 0 -4 -12 -6 -27 -4 -16 1 -27 8 -25 14 1 7 -7 12
-18 12 -11 0 -20 5 -20 11 0 5 -4 7 -10 4 -5 -3 -10 -28 -10 -54 0 -42 3 -50
23 -56 12 -4 25 -7 30 -6 4 1 7 -7 7 -16 1 -15 5 -13 25 10 33 37 59 35 84 -8
11 -19 28 -35 38 -35 23 -1 63 -34 63 -53 0 -8 -9 -26 -21 -41 l-20 -26 76 0
c85 0 84 -2 32 57 -12 13 -17 30 -14 43 4 17 2 20 -14 15 -13 -4 -19 -2 -19 9
0 8 -3 21 -6 30 -4 10 -1 16 9 16 25 0 32 22 12 37 -18 12 -18 13 2 13 23 0
33 -18 33 -56 0 -22 4 -25 28 -23 4 0 9 -10 12 -23 5 -18 13 -22 40 -23 43 -1
49 -18 16 -48 -47 -44 -37 -48 111 -45 129 3 138 4 141 23 9 64 12 69 29 53
14 -15 14 -19 0 -47 l-15 -31 29 0 c19 0 29 5 29 15 0 8 4 15 9 15 5 0 11 -7
15 -15 5 -13 52 -15 341 -15 358 0 359 0 315 48 -14 15 -20 35 -20 67 0 26 -5
56 -11 68 -9 20 -9 20 11 -2 26 -30 36 -21 21 19 -9 27 -8 31 4 26 20 -7 19
21 -2 59 -10 18 -17 56 -19 95 -2 98 -22 240 -40 284 -14 37 -14 40 6 58 18
16 19 28 16 96 -5 82 -31 277 -40 302 -4 9 -10 65 -14 126 l-8 111 -60 99
c-79 131 -78 127 -44 166 35 39 37 54 9 61 -17 5 -20 10 -14 29 17 53 18 149
1 186 -8 20 -15 46 -13 57 2 18 -3 20 -53 17 -30 -2 -74 -12 -98 -23 -56 -24
-69 -24 -82 1 -11 20 -11 20 -58 -4 -43 -22 -50 -23 -80 -10 -27 11 -197 37
-277 43 -11 0 -45 3 -75 5 -195 16 -226 15 -290 -2z m-12 -44 c-3 -7 -13 -15
-24 -17 -16 -3 -17 -1 -5 13 16 19 34 21 29 4z m252 2 c0 -5 -2 -10 -4 -10 -3
0 -8 5 -11 10 -3 6 -1 10 4 10 6 0 11 -4 11 -10z m150 -5 c0 -8 -4 -15 -10
-15 -5 0 -7 7 -4 15 4 8 8 15 10 15 2 0 4 -7 4 -15z m-325 -17 c-3 -8 -20 -23
-38 -33 -18 -10 -37 -25 -43 -33 -13 -18 -104 -29 -104 -13 0 6 11 13 25 17
19 5 25 12 23 28 -3 18 1 21 27 18 17 -1 48 6 69 17 43 22 50 22 41 -1z m230
12 c-3 -5 -11 -10 -16 -10 -6 0 -7 5 -4 10 3 6 11 10 16 10 6 0 7 -4 4 -10z
m163 -17 c5 -18 -26 -16 -45 3 -15 14 -14 15 12 12 16 -2 30 -9 33 -15z m186
11 c20 -8 21 -34 1 -34 -8 0 -15 -4 -15 -10 0 -5 -14 -10 -31 -10 -36 0 -36
23 0 28 15 2 21 9 17 18 -6 15 3 18 28 8z m-109 -14 c3 -5 -3 -10 -14 -10 -12
0 -21 5 -21 10 0 6 6 10 14 10 8 0 18 -4 21 -10z m-218 -19 c0 -11 -5 -17 -10
-14 -4 2 -14 0 -22 -7 -10 -9 -19 -9 -35 0 -21 11 -21 12 -3 25 10 8 30 15 45
15 20 0 26 -5 25 -19z m513 -9 c0 -26 -11 -34 -28 -19 -8 6 -18 11 -21 9 -3
-2 -7 1 -9 6 -3 9 6 13 51 21 4 0 7 -7 7 -17z m-971 -7 c-9 -9 -23 -13 -32 -9
-24 9 -11 24 21 24 24 0 25 -2 11 -15z m315 -16 c-5 -8 -54 1 -54 10 0 16 12
18 35 7 13 -6 22 -14 19 -17z m256 21 c12 -8 9 -10 -12 -10 -16 0 -28 5 -28
10 0 13 20 13 40 0z m240 -25 c-7 -8 -19 -15 -28 -15 -12 0 -10 6 9 26 24 26
41 16 19 -11z m-1075 -4 c6 -10 -25 -31 -44 -31 -15 0 -14 27 2 33 20 9 35 8
42 -2z m1156 -7 c14 -13 16 -21 8 -35 -12 -23 -39 -25 -39 -4 0 9 -7 18 -15
21 -23 9 -18 34 7 34 12 0 30 -7 39 -16z m-726 -41 c-17 -40 -11 -57 22 -59
22 -1 30 2 27 11 -10 24 17 27 36 3 l19 -23 1 36 c0 20 6 41 13 47 18 15 65 3
73 -20 7 -24 1 -31 -29 -33 -17 -1 -21 -7 -19 -26 2 -16 -9 -37 -31 -61 -37
-41 -62 -48 -71 -20 -5 14 -14 17 -42 14 -28 -3 -35 -1 -32 9 4 10 19 13 47
11 23 -1 41 2 41 8 0 5 -11 10 -23 10 -23 0 -67 29 -67 44 0 15 -26 33 -42 28
-20 -5 -21 -2 -12 22 3 9 16 16 29 16 13 0 26 8 29 17 6 15 8 15 23 1 10 -11
13 -23 8 -35z m-350 27 c3 -5 -3 -10 -14 -10 -12 0 -21 5 -21 10 0 6 6 10 14
10 8 0 18 -4 21 -10z m947 -62 c-7 -16 -18 -28 -24 -28 -5 0 -8 -6 -5 -14 8
-21 -17 -38 -47 -30 -30 7 -35 24 -6 24 14 0 18 5 13 16 -4 10 -8 12 -13 4 -7
-11 -40 -4 -40 9 0 13 32 51 52 62 15 8 19 8 14 0 -4 -6 0 -11 10 -11 14 0 14
-3 4 -15 -17 -20 -5 -32 15 -15 11 9 12 17 4 32 -8 16 -8 23 2 29 22 13 37
-31 21 -63z m-812 33 c-5 -10 -16 -21 -25 -25 -8 -3 -15 -10 -15 -16 0 -7 6
-8 19 0 33 17 42 12 36 -19 -3 -19 1 -35 11 -46 13 -12 14 -19 4 -30 -14 -17
-40 -20 -40 -6 0 5 -12 11 -26 13 l-26 3 27 29 27 29 -31 -6 c-24 -5 -31 -3
-31 9 0 12 -7 14 -32 9 -26 -6 -30 -5 -25 9 4 10 1 16 -8 16 -24 0 -17 30 10
42 21 9 28 8 38 -4 14 -18 47 -31 47 -18 0 5 7 16 16 24 20 21 37 11 24 -13z
m1110 6 c0 -30 -10 -40 -27 -26 -20 18 -16 49 7 49 14 0 20 -7 20 -23z m-530
-2 c0 -16 -35 -21 -44 -6 -8 12 4 21 26 21 10 0 18 -7 18 -15z m306 -10 c-3
-8 0 -16 7 -19 7 -2 8 -5 2 -5 -20 -1 -38 17 -32 34 4 9 12 13 18 10 6 -4 8
-13 5 -20z m-1092 -48 c-6 -18 -44 -24 -44 -8 0 5 7 17 16 26 19 19 38 7 28
-18z m-124 -9 c-1 -7 -7 -24 -14 -37 -13 -23 -14 -23 -24 -5 -7 12 -7 25 -1
36 11 20 39 24 39 6z m1335 -28 c0 -18 -5 -35 -12 -37 -14 -5 -28 40 -19 63
10 27 31 9 31 -26z m-64 14 c9 -11 10 -20 2 -32 -14 -24 -26 -19 -41 17 -11
28 -10 31 7 31 10 0 24 -7 32 -16z m-1335 -21 c-10 -10 -19 5 -10 18 6 11 8
11 12 0 2 -7 1 -15 -2 -18z m1008 12 c-4 -8 -10 -12 -15 -9 -14 8 -10 24 6 24
9 0 12 -6 9 -15z m260 -7 c-1 -10 1 -18 6 -18 4 0 12 -12 18 -26 9 -18 17 -24
31 -19 13 4 20 0 24 -15 3 -13 0 -20 -8 -20 -7 0 -21 -3 -30 -6 -11 -5 -18 0
-22 15 -3 11 -9 21 -13 21 -15 0 -60 54 -60 72 0 15 6 19 28 16 19 -2 27 -8
26 -20z m-974 -3 c0 -8 -4 -15 -10 -15 -5 0 -10 -5 -10 -11 0 -5 4 -7 10 -4 5
3 15 -6 22 -20 8 -18 9 -29 1 -33 -6 -4 -7 -16 -3 -26 4 -14 9 -16 14 -8 23
38 35 -10 15 -66 -6 -17 -9 -41 -6 -54 l4 -23 8 23 c9 27 35 29 35 2 0 -12 7
-20 16 -20 14 0 16 -9 12 -51 -3 -28 -10 -54 -15 -58 -6 -3 -14 -21 -18 -40
-5 -23 -4 -31 4 -27 6 4 11 13 11 20 0 7 10 26 23 42 14 19 22 42 22 69 0 30
4 41 18 43 20 4 22 -23 6 -83 -8 -29 -8 -40 0 -43 6 -2 11 -13 11 -24 0 -19 2
-19 24 7 15 18 30 26 40 22 23 -9 20 -22 -16 -63 -28 -32 -33 -34 -44 -20 -6
9 -16 16 -23 16 -6 0 -11 4 -11 10 0 5 -6 7 -13 4 -10 -3 -5 -14 17 -38 31
-33 82 -62 58 -33 -9 10 -8 18 3 33 10 13 17 16 22 7 11 -15 34 -18 58 -8 36
16 64 54 30 41 -18 -7 -45 3 -45 16 0 5 13 14 29 19 34 12 43 28 35 68 -5 25
-13 31 -64 45 -55 16 -77 36 -64 58 3 5 17 7 29 4 21 -5 22 -4 12 19 -13 28
-22 31 -30 11 -7 -19 -69 -48 -79 -38 -13 13 22 54 43 49 12 -3 19 0 19 10 0
11 -7 13 -31 8 -26 -6 -30 -4 -29 12 4 31 1 36 -15 23 -11 -9 -15 -9 -15 -1 0
6 7 14 15 17 10 4 13 14 9 33 -4 14 -3 23 1 19 4 -4 21 0 37 8 28 14 30 14 35
-5 3 -11 18 -24 34 -30 41 -14 36 -20 -11 -14 -26 4 -40 2 -40 -6 0 -6 7 -11
15 -11 8 0 15 -7 15 -15 0 -17 16 -20 25 -5 9 14 35 -7 35 -27 0 -7 6 -13 13
-12 25 3 37 -1 37 -14 0 -7 14 -23 31 -36 l31 -23 -4 28 c-2 15 2 29 10 31 8
3 12 -5 12 -24 0 -20 3 -24 9 -14 5 7 14 10 20 6 9 -5 8 -13 -3 -31 -20 -29
-20 -34 -1 -34 8 0 15 -9 15 -20 0 -24 8 -25 38 -4 13 9 21 22 18 29 -2 7 2
21 9 32 13 16 14 16 15 1 0 -9 10 -18 23 -20 32 -4 28 -33 -5 -33 -38 -1 -67
-34 -61 -68 3 -15 10 -27 15 -27 5 0 7 4 4 8 -2 4 4 19 14 32 17 22 21 23 34
10 13 -13 14 -21 4 -48 -7 -18 -18 -32 -25 -32 -16 0 -16 -5 -3 -31 9 -15 7
-19 -6 -19 -9 0 -18 9 -21 20 -3 11 -8 20 -12 21 -3 0 -16 2 -28 3 -13 2 -33
14 -45 27 -23 24 -23 24 -44 6 -20 -17 -21 -21 -7 -48 18 -37 14 -58 -16 -78
-24 -15 -24 -15 -19 6 5 19 2 22 -15 19 -12 -2 -23 -12 -25 -22 -2 -10 -8 -29
-14 -41 -6 -13 -8 -26 -4 -30 4 -4 9 3 13 15 3 14 13 22 26 22 33 0 87 -23 87
-36 0 -22 -20 -26 -45 -10 -23 15 -25 15 -35 -4 -6 -11 -19 -20 -29 -20 -21 0
-32 -10 -25 -21 3 -5 15 -4 27 2 21 12 21 11 5 -8 -26 -29 -22 -36 17 -30 19
3 48 1 64 -6 27 -10 32 -9 51 16 12 15 30 27 39 27 10 0 30 9 44 20 14 11 30
20 36 20 6 0 17 13 26 30 8 16 23 34 34 39 28 15 23 83 -6 96 -13 5 -23 18
-23 28 0 11 4 15 11 11 9 -5 10 1 5 20 -3 14 -3 26 1 25 32 -5 49 33 19 44
-15 6 -27 55 -20 84 4 14 12 19 29 16 18 -4 25 2 36 25 7 17 20 31 29 31 28 1
55 7 67 14 7 5 21 3 32 -2 14 -8 22 -7 31 4 17 21 29 19 39 -7 6 -15 5 -28 -3
-37 -8 -11 -8 -15 2 -18 14 -5 17 -33 3 -33 -6 0 -13 5 -16 10 -4 6 -10 8 -15
5 -5 -3 -11 4 -15 15 -3 11 -11 21 -16 21 -22 3 -35 2 -52 -6 -11 -4 -30 -3
-45 4 -22 10 -25 10 -14 0 17 -18 16 -23 -13 -57 -21 -25 -23 -31 -11 -42 13
-10 12 -16 -5 -43 -10 -18 -19 -40 -19 -50 0 -9 -5 -16 -11 -15 -6 2 -14 -3
-16 -10 -4 -9 2 -11 22 -6 26 6 27 5 21 -20 -8 -32 -3 -33 25 -3 16 16 20 18
16 5 -3 -10 -1 -20 4 -24 6 -3 8 -16 4 -28 -3 -11 -7 -42 -9 -67 -1 -39 -8
-53 -39 -83 -21 -20 -41 -34 -46 -32 -4 3 -15 -8 -25 -25 -11 -19 -25 -29 -42
-29 -20 0 -24 5 -24 31 0 28 2 31 25 25 27 -7 35 8 9 18 -23 9 -46 7 -39 -3 8
-14 -25 -42 -44 -36 -11 3 -20 -4 -29 -25 -8 -17 -18 -28 -23 -24 -5 3 -19 -2
-31 -10 -12 -9 -28 -16 -35 -16 -22 0 -14 27 10 35 13 4 17 8 9 12 -7 2 -27 0
-44 -6 -24 -9 -33 -8 -39 1 -4 7 -12 9 -16 4 -8 -8 34 -49 59 -59 10 -3 8 -9
-7 -22 -20 -16 -19 -16 8 -12 l28 4 -20 -21 c-16 -17 -18 -25 -10 -33 9 -9 4
-12 -20 -11 -37 1 -40 4 -44 55 -2 21 -15 56 -28 78 -14 22 -30 58 -37 80 -8
27 -25 52 -54 75 -85 70 -98 84 -89 99 7 10 13 11 30 2 11 -7 21 -8 21 -3 0 5
-13 15 -30 22 -16 7 -30 18 -30 25 0 7 -6 18 -14 25 -8 6 -12 18 -9 26 6 16
-14 92 -29 109 -11 12 -10 59 1 70 5 6 5 19 1 30 l-8 20 -7 -20 c-4 -11 -9
-27 -12 -35 -4 -10 -9 -4 -14 16 -5 19 -17 34 -29 37 -11 3 -20 13 -20 24 1
21 33 63 49 63 5 0 13 5 17 12 5 8 0 9 -14 6 -27 -8 -28 2 -1 36 23 29 39 34
39 11z m230 -4 c0 -6 -4 -13 -10 -16 -5 -3 -10 1 -10 9 0 9 5 16 10 16 6 0 10
-4 10 -9z m510 -1 c0 -5 -4 -10 -10 -10 -5 0 -10 5 -10 10 0 6 5 10 10 10 6 0
10 -4 10 -10z m-940 -32 c0 -13 -4 -29 -9 -36 -6 -10 -9 -8 -13 10 -2 13 -3
29 0 36 6 20 22 13 22 -10z m130 3 c0 -10 -6 -24 -14 -31 -8 -6 -16 -21 -18
-32 -2 -12 -9 -24 -17 -26 -11 -4 -12 1 -7 19 5 13 9 35 10 49 4 39 5 40 26
40 13 0 20 -7 20 -19z m610 -1 c0 -23 -37 -107 -51 -116 -14 -8 -58 29 -59 49
0 9 4 17 9 17 4 0 6 11 3 25 -6 32 16 33 24 1 10 -41 30 -38 43 5 12 41 31 53
31 19z m-690 -5 c0 -8 -4 -15 -9 -15 -13 0 -22 16 -14 24 11 11 23 6 23 -9z
m-100 -11 c0 -8 -4 -12 -10 -9 -5 3 -10 10 -10 16 0 5 5 9 10 9 6 0 10 -7 10
-16z m938 -23 c3 -8 -1 -12 -9 -9 -7 2 -15 10 -17 17 -3 8 1 12 9 9 7 -2 15
-10 17 -17z m244 2 c14 -12 18 -13 18 -3 0 10 3 11 11 3 7 -7 3 -18 -15 -37
l-25 -28 -16 32 c-23 45 -8 65 27 33z m-140 -23 c13 -24 14 -30 4 -30 -8 0
-19 14 -25 30 -13 39 -1 39 21 0z m388 -8 c0 -10 7 -27 15 -39 8 -11 16 -36
17 -54 2 -25 10 -37 30 -48 21 -10 30 -25 39 -66 11 -48 10 -56 -6 -71 -14
-14 -15 -19 -4 -23 7 -2 15 2 18 10 9 27 38 -95 30 -125 -7 -23 -5 -34 8 -49
17 -18 17 -19 0 -28 -9 -6 -17 -19 -17 -29 0 -11 -7 -20 -15 -20 -10 0 -15 10
-15 29 0 16 -5 42 -10 57 -7 18 -7 31 -1 37 7 7 14 2 20 -14 10 -24 10 -24 10
-1 1 12 -3 22 -9 22 -5 0 -10 8 -10 19 0 22 -23 44 -35 33 -5 -4 -5 2 -1 12 4
12 0 26 -9 36 -10 11 -17 38 -17 69 -1 37 -4 48 -13 41 -7 -5 -16 -6 -20 -2
-5 4 -5 -2 -1 -12 6 -16 4 -17 -9 -6 -11 10 -13 15 -4 20 14 10 3 46 -17 54
-11 4 -14 1 -9 -13 3 -11 1 -22 -5 -26 -16 -10 -48 22 -55 56 -4 16 -11 29
-17 29 -16 0 -58 43 -58 60 0 10 3 11 8 4 4 -6 14 -10 23 -9 9 2 24 -10 33
-26 9 -16 28 -32 42 -35 39 -10 39 2 0 28 -60 38 -57 93 3 62 25 -13 26 -13
35 16 9 31 26 32 26 2z m-826 -14 c-7 -10 -34 -10 -34 0 0 4 5 13 12 20 9 9
14 9 19 0 4 -7 5 -16 3 -20z m548 -13 c4 -17 1 -25 -8 -25 -8 0 -14 11 -14 25
0 14 4 25 9 25 5 0 11 -11 13 -25z m-595 -7 c-3 -8 -6 -5 -6 6 -1 11 2 17 5
13 3 -3 4 -12 1 -19z m243 -8 c0 -11 -4 -20 -9 -20 -5 0 -7 9 -4 20 3 11 7 20
9 20 2 0 4 -9 4 -20z m6 -42 c-14 -24 -26 -39 -26 -35 0 12 44 86 48 82 2 -2
-8 -23 -22 -47z m101 30 c-3 -8 -6 -5 -6 6 -1 11 2 17 5 13 3 -3 4 -12 1 -19z
m358 -48 c-3 -5 -10 -10 -16 -10 -5 0 -9 5 -9 10 0 6 7 10 16 10 8 0 12 -4 9
-10z m-276 -39 c-6 -18 -13 -30 -15 -28 -2 2 1 18 7 36 6 18 13 30 15 28 2 -2
-1 -18 -7 -36z m91 -11 c0 6 5 8 10 5 6 -3 10 -22 10 -41 0 -21 -4 -33 -10
-29 -5 3 -10 1 -10 -4 0 -6 -7 -11 -15 -11 -8 0 -15 -4 -15 -10 0 -5 -11 -10
-25 -10 -20 0 -25 -5 -25 -25 0 -18 5 -25 19 -25 28 0 35 -17 12 -29 -12 -7
-17 -18 -14 -30 3 -12 -3 -24 -17 -34 -12 -8 -19 -20 -16 -25 3 -6 -1 -12 -9
-16 -13 -5 -13 -1 -1 29 13 29 13 35 0 46 -15 12 -9 33 7 24 12 -8 11 2 -1 26
-6 10 -17 19 -25 19 -19 0 -19 20 0 46 10 15 22 20 40 17 15 -3 25 -1 25 6 0
6 -9 11 -20 11 -24 0 -24 -3 0 49 l21 42 29 -21 c17 -12 30 -16 30 -10z m499
-34 l-1 -31 -13 30 c-8 17 -14 39 -14 50 0 20 0 20 14 1 8 -11 15 -34 14 -50z
m-330 -14 c14 -11 14 -14 1 -22 -22 -14 -33 -12 -26 5 3 8 1 15 -3 15 -5 0 -7
10 -3 22 4 16 7 18 10 8 2 -8 12 -21 21 -28z m80 -11 c17 -21 31 -46 31 -55 0
-21 -46 -22 -54 -1 -3 8 -12 15 -21 15 -11 0 -15 11 -15 40 0 52 19 52 59 1z
m315 -61 c7 -24 6 -24 -8 -6 -9 11 -16 29 -16 40 1 17 2 18 9 6 5 -8 12 -26
15 -40z m-71 11 c3 -14 1 -18 -9 -14 -15 6 -18 16 -7 26 9 10 10 9 16 -12z
m-495 -22 c-2 -6 -8 -10 -13 -10 -5 0 -11 4 -13 10 -2 6 4 11 13 11 9 0 15 -5
13 -11z m203 -11 c1 -7 3 -24 4 -38 1 -14 3 -27 4 -30 5 -11 8 -66 4 -73 -3
-4 -10 -4 -16 2 -13 10 -17 11 -46 11 -11 0 -26 7 -35 15 -8 8 -19 15 -25 15
-6 0 -8 6 -5 14 4 10 -3 16 -23 18 -39 4 -43 35 -6 49 15 6 40 13 56 16 22 5
27 2 27 -15 0 -12 9 -23 21 -27 22 -7 39 2 24 13 -17 12 -17 42 0 42 8 0 16
-6 16 -12z m319 -29 c0 -5 -4 -9 -10 -9 -5 0 -10 7 -10 16 0 8 5 12 10 9 6 -3
10 -10 10 -16z m-836 -71 c5 -20 -16 -34 -33 -23 -6 3 -20 1 -31 -5 -24 -13
-36 6 -26 44 5 22 8 23 45 13 25 -7 42 -18 45 -29z m620 26 c3 -8 1 -24 -4
-35 -16 -30 -40 -4 -26 28 13 27 22 29 30 7z m129 -24 c3 -11 1 -20 -4 -20 -5
0 -9 9 -9 20 0 11 2 20 4 20 2 0 6 -9 9 -20z m-731 -62 c-15 -15 -26 -4 -18
18 5 13 9 15 18 6 9 -9 9 -15 0 -24z m805 10 c-3 -8 -6 -5 -6 6 -1 11 2 17 5
13 3 -3 4 -12 1 -19z m-1317 -18 c0 -5 -6 -10 -14 -10 -8 0 -18 5 -21 10 -3 6
3 10 14 10 12 0 21 -4 21 -10z m443 -9 c39 -20 34 -35 -10 -26 -21 4 -40 8
-42 10 -6 7 9 37 17 33 4 -2 19 -10 35 -17z m657 9 c0 -5 -7 -10 -15 -10 -8 0
-15 5 -15 10 0 6 7 10 15 10 8 0 15 -4 15 -10z m270 -38 c0 -15 -2 -15 -10 -2
-13 20 -13 33 0 25 6 -3 10 -14 10 -23z m-270 -2 c0 -5 -4 -10 -10 -10 -5 0
-10 5 -10 10 0 6 5 10 10 10 6 0 10 -4 10 -10z m37 -8 c15 -10 21 -84 7 -89
-13 -4 -34 40 -34 72 0 26 7 30 27 17z m-127 -46 c0 -16 -14 -36 -26 -36 -17
0 -18 -12 -2 -28 9 -9 8 -12 -5 -12 -9 0 -17 -4 -17 -9 0 -18 48 -8 53 11 4
13 12 18 24 16 14 -3 18 -13 18 -43 0 -32 7 -47 33 -75 28 -30 33 -40 28 -70
-3 -19 -6 -43 -6 -54 0 -15 -3 -16 -14 -7 -8 7 -12 21 -8 34 5 19 3 20 -11 9
-11 -10 -15 -24 -11 -49 2 -20 0 -41 -5 -47 -4 -6 -11 -28 -15 -48 -4 -21 -11
-38 -16 -38 -6 0 -10 -9 -10 -19 0 -28 -19 -36 -38 -17 -16 16 -16 18 -1 26
22 13 43 66 34 87 -6 17 -7 17 -16 0 -6 -9 -8 -21 -5 -26 3 -5 -1 -11 -9 -15
-15 -5 -29 10 -30 33 0 9 -13 16 -35 19 -36 4 -84 38 -74 54 3 4 10 5 16 2 6
-4 8 -2 5 3 -4 6 -17 13 -29 16 -13 2 -32 8 -42 12 -14 6 -17 5 -12 -3 15 -24
-12 -11 -29 14 -12 19 -20 23 -29 15 -14 -12 -26 -5 -26 15 0 12 15 12 81 -1
57 -11 96 15 124 81 8 21 24 46 34 55 12 11 17 26 14 42 -4 18 2 29 18 41 23
15 39 21 39 12z m69 -12 c18 -9 30 -18 27 -21 -7 -7 -66 20 -66 29 0 11 2 10
39 -8z m215 -7 c16 -16 6 -45 -24 -72 l-23 -20 7 23 c5 13 3 22 -3 22 -6 0
-11 5 -11 10 0 6 7 10 15 10 8 0 15 9 15 20 0 23 6 25 24 7z m-1274 -63 c0
-13 39 -49 63 -57 10 -4 31 0 48 8 34 18 35 14 12 -26 -55 -93 -153 -37 -166
96 l-5 50 24 -30 c13 -16 24 -35 24 -41z m580 49 c0 -13 -33 -43 -48 -43 -12
0 -10 6 8 25 23 24 40 32 40 18z m2 -48 c-27 -34 -36 -19 -9 17 12 16 23 24
25 19 2 -6 -5 -22 -16 -36z m271 -38 c-24 -41 -65 -61 -109 -52 l-34 6 26 24
c15 14 31 25 37 25 6 0 28 19 51 43 l40 42 4 -28 c2 -15 -5 -42 -15 -60z m234
67 c-3 -3 -12 -4 -19 -1 -8 3 -5 6 6 6 11 1 17 -2 13 -5z m223 -24 c0 -5 -2
-10 -4 -10 -3 0 -8 5 -11 10 -3 6 -1 10 4 10 6 0 11 -4 11 -10z m-235 -10 c-3
-5 6 -12 20 -16 14 -3 25 -9 25 -13 0 -13 -44 -7 -59 7 -12 12 -12 15 0 23 18
11 22 11 14 -1z m-620 -10 c18 -8 17 -9 -7 -9 -16 -1 -28 4 -28 9 0 12 8 12
35 0z m85 -1 c0 -5 -12 -9 -26 -9 -14 0 -23 4 -20 8 7 11 46 12 46 1z m-101
-39 c7 0 10 -4 7 -9 -3 -4 6 -6 19 -3 18 3 25 0 25 -12 0 -9 5 -16 11 -16 5 0
7 -5 4 -10 -4 -6 -12 -7 -18 -3 -7 4 -19 6 -28 5 -18 -3 -72 61 -61 72 3 4 12
0 18 -8 6 -9 17 -16 23 -16z m96 1 c10 -18 -17 -23 -33 -7 -15 15 -15 16 5 16
12 0 24 -4 28 -9z m585 -22 c0 -22 -18 -24 -42 -5 -19 14 -25 32 -8 21 6 -3
10 -2 10 3 0 6 9 8 20 5 11 -3 20 -14 20 -24z m130 -1 c-1 -38 -23 -73 -40
-63 -8 5 -8 11 -1 19 6 7 7 17 3 21 -4 5 -1 5 6 1 8 -5 12 0 12 17 0 21 7 37
17 37 2 0 3 -15 3 -32z m-930 -84 c0 -8 -5 -12 -10 -9 -6 4 -8 11 -5 16 9 14
15 11 15 -7z m1111 -47 c-8 -8 -11 -3 -11 19 1 25 2 27 11 11 8 -14 8 -22 0
-30z m-142 -146 c-8 -2 -17 -9 -21 -15 -10 -14 -11 5 -2 28 5 13 9 14 21 4 12
-10 13 -13 2 -17z m-1639 -12 c0 -11 -4 -17 -10 -14 -5 3 -10 13 -10 21 0 8 5
14 10 14 6 0 10 -9 10 -21z m183 -10 c6 -24 -1 -49 -14 -49 -5 0 -9 16 -9 35
0 38 14 47 23 14z m1067 -46 c0 -8 -5 -13 -12 -11 -18 6 -21 25 -3 25 8 0 15
-7 15 -14z m388 -1 c6 -18 -15 -14 -22 4 -4 10 -1 14 6 12 6 -2 14 -10 16 -16z
m-54 -10 c3 -5 -1 -9 -9 -9 -8 0 -12 4 -9 9 3 4 7 8 9 8 2 0 6 -4 9 -8z m160
-53 c7 -41 2 -59 -10 -46 -11 11 -16 87 -6 87 5 0 12 -19 16 -41z m-154 11 c0
-5 -4 -10 -9 -10 -6 0 -13 5 -16 10 -3 6 1 10 9 10 9 0 16 -4 16 -10z m-1386
-41 c-3 -5 -10 -7 -15 -3 -5 3 -7 10 -3 15 3 5 10 7 15 3 5 -3 7 -10 3 -15z
m1297 -11 c0 -13 2 -30 4 -39 2 -13 -7 -16 -51 -17 -30 0 -57 4 -60 9 -3 5 4
9 15 9 10 0 22 6 24 13 4 9 8 9 15 -2 12 -17 35 -4 28 16 -7 17 1 33 15 33 5
0 9 -10 10 -22z m-1451 -7 c0 -6 -4 -13 -10 -16 -5 -3 -10 1 -10 9 0 9 5 16
10 16 6 0 10 -4 10 -9z m1311 -20 c-9 -17 -56 -31 -103 -31 -38 0 -15 19 40
33 75 20 74 20 63 -2z m359 4 c10 -12 10 -15 -4 -15 -9 0 -16 7 -16 15 0 8 2
15 4 15 2 0 9 -7 16 -15z m-1630 -60 c0 -18 -7 -28 -26 -36 -37 -13 -40 -6
-13 30 28 38 39 39 39 6z m1318 -2 c39 -33 30 -104 -9 -82 -16 8 -23 7 -33 -7
-12 -16 -13 -16 -20 2 -4 10 -3 20 3 22 7 2 7 12 0 28 -15 40 -12 45 32 53 4
0 16 -7 27 -16z m76 -12 c15 -16 23 -18 44 -10 30 12 59 -11 67 -51 6 -31 45
-66 55 -50 5 7 10 3 13 -11 10 -38 -4 -42 -32 -10 -32 36 -41 38 -41 11 0 -31
-17 -24 -36 15 -9 19 -26 38 -38 41 -11 3 -31 23 -44 44 -24 42 -17 53 12 21z
m-1370 -19 c-16 -11 -27 -44 -25 -78 2 -26 -4 -35 -31 -52 -38 -23 -98 -38
-98 -24 0 5 9 17 20 27 12 10 30 34 41 52 11 18 27 33 35 33 8 0 14 6 14 14 0
14 41 47 50 39 2 -2 0 -7 -6 -11z m1192 6 c4 -6 3 -8 -3 -5 -10 6 -59 -81 -69
-125 -8 -35 -40 -37 -55 -4 -15 32 5 70 33 63 17 -5 19 -2 15 19 -3 18 -1 24
9 20 8 -3 14 0 14 7 0 30 42 48 56 25z m-335 -18 c-30 -26 -49 -26 -26 0 10
11 25 20 34 20 12 -1 10 -5 -8 -20z m-11 -45 c-14 -17 -40 -20 -40 -6 0 8 18
16 44 20 5 0 3 -6 -4 -14z m-12 -37 c-5 -16 -48 -24 -48 -9 0 8 17 16 43 20 5
0 7 -5 5 -11z m72 -29 c0 -10 -4 -19 -10 -19 -5 0 -10 12 -10 26 0 14 4 23 10
19 6 -3 10 -15 10 -26z m-41 -3 c7 -9 8 -21 2 -37 -8 -21 -10 -22 -16 -6 -10
24 -25 21 -25 -5 0 -26 -14 -14 -25 20 -5 17 -1 24 17 31 31 13 34 13 47 -3z
m656 -96 c-3 -5 -12 -10 -18 -10 -7 0 -6 4 3 10 19 12 23 12 15 0z m-676 -48
c1 -21 -53 -11 -57 10 -2 13 1 16 12 12 10 -4 18 1 23 12 6 16 7 16 14 -2 4
-10 8 -25 8 -32z"/>
<path d="M845 1730 c-3 -5 -1 -10 4 -10 6 0 11 5 11 10 0 6 -2 10 -4 10 -3 0
-8 -4 -11 -10z"/>
<path d="M825 1393 c9 -38 22 -52 43 -46 22 5 26 39 6 47 -9 3 -12 10 -9 16 4
6 -5 10 -20 10 -25 0 -27 -3 -20 -27z"/>
<path d="M686 1213 c-10 -10 -7 -25 3 -18 6 3 14 -3 20 -12 9 -16 10 -16 11 3
0 21 -22 39 -34 27z"/>
<path d="M690 1148 c0 -9 5 -20 10 -23 13 -8 13 5 0 25 -8 13 -10 13 -10 -2z"/>
<path d="M1651 1454 c0 -11 3 -14 6 -6 3 7 2 16 -1 19 -3 4 -6 -2 -5 -13z"/>
<path d="M1432 1243 c-16 -6 15 -32 38 -32 12 0 11 2 -3 10 -9 6 -15 14 -12
20 7 10 -2 11 -23 2z"/>
<path d="M1460 910 c-12 -23 -6 -40 16 -40 8 0 14 10 14 24 0 33 -16 42 -30
16z"/>
<path d="M1509 863 c-7 -46 -7 -63 0 -63 12 0 20 60 9 66 -4 3 -9 2 -9 -3z"/>
<path d="M1440 834 c0 -9 -8 -23 -17 -30 -17 -12 -16 -13 5 -14 19 0 25 9 21
36 0 4 5 11 13 15 10 7 9 9 -4 9 -10 0 -18 -7 -18 -16z"/>
<path d="M1480 770 c0 -7 -3 -10 -7 -7 -7 8 -33 -11 -33 -24 0 -5 5 -9 10 -9
6 0 10 8 10 18 0 11 3 13 8 5 5 -8 13 -9 22 -3 12 7 12 12 2 22 -9 9 -12 9
-12 -2z"/>
<path d="M1366 761 c-3 -5 1 -12 10 -15 25 -10 34 -7 34 9 0 16 -35 21 -44 6z"/>
<path d="M111 1245 c-4 -32 -32 -204 -37 -225 -3 -14 -2 -22 2 -18 4 4 13 0
20 -10 11 -14 12 -7 8 48 -3 36 0 90 6 121 7 31 10 64 7 75 -2 10 -5 15 -6 9z"/>
<path d="M305 871 c-3 -5 -1 -12 5 -16 5 -3 10 1 10 9 0 18 -6 21 -15 7z"/>
<path d="M396 654 c-4 -10 -1 -14 6 -12 15 5 23 28 10 28 -5 0 -13 -7 -16 -16z"/>
<path d="M545 609 c-11 -17 1 -21 15 -4 8 9 8 15 2 15 -6 0 -14 -5 -17 -11z"/>
<path d="M638 593 c-19 -5 -41 -60 -28 -68 5 -3 18 12 30 35 11 22 19 39 18
39 -2 -1 -11 -3 -20 -6z"/>
<path d="M1184 574 c3 -8 6 -22 6 -29 0 -8 9 -13 20 -12 23 1 23 2 10 26 -13
25 -45 38 -36 15z"/>
<path d="M480 460 c-7 -4 -19 -6 -27 -3 -19 8 -16 -5 5 -16 12 -6 23 -5 35 4
20 15 9 28 -13 15z"/>
<path d="M554 456 c-10 -8 -15 -18 -11 -22 4 -4 15 0 24 9 22 21 12 31 -13 13z"/>
<path d="M685 313 c2 -15 4 -31 4 -35 1 -3 18 -20 40 -37 36 -28 40 -30 52
-14 12 15 12 16 -3 10 -12 -4 -24 2 -37 18 -10 14 -24 25 -31 25 -6 0 -9 8 -5
19 3 10 -1 23 -9 30 -13 11 -14 8 -11 -16z"/>
<path d="M359 184 c-13 -14 -36 -33 -50 -41 -17 -10 -31 -31 -39 -57 -6 -23
-18 -51 -26 -63 -14 -23 -14 -23 26 -23 23 0 51 5 63 11 16 9 22 9 25 0 5 -16
77 -14 91 3 7 8 13 41 14 74 2 52 0 58 -16 54 -10 -2 -16 -10 -13 -17 7 -19
-89 -105 -118 -105 -2 0 -6 12 -8 28 -2 20 5 34 30 56 21 18 32 37 32 55 0 15
5 32 12 39 7 7 10 12 7 12 -3 0 -16 -12 -30 -26z"/>
<path d="M572 141 c-14 -8 -24 -61 -13 -61 4 0 12 5 19 12 17 17 15 -10 -3
-42 -24 -42 -19 -47 55 -49 41 -1 70 2 70 8 0 28 -21 62 -37 59 -11 -2 -22 8
-31 25 -7 15 -19 27 -27 27 -7 0 -15 7 -17 15 -2 9 -8 12 -16 6z"/>
<path d="M480 30 l-25 -25 23 -3 c30 -4 34 0 30 30 l-3 23 -25 -25z"/>
</g>
</svg>
